<?xml version="1.0" encoding="utf-8"?>
<!-- Generator: Adobe Illustrator 24.1.2, SVG Export Plug-In . SVG Version: 6.00 Build 0)  -->
<svg version="1.1" id="Layer_1" xmlns="http://www.w3.org/2000/svg" xmlns:xlink="http://www.w3.org/1999/xlink" x="0px" y="0px"
	 viewBox="0 0 1920 1080" style="enable-background:new 0 0 1920 1080;" xml:space="preserve">
<style type="text/css">
	.st0{fill:#B4B4B4;}
	.st1{fill:#40A8C4;}
	.st2{fill:#F0F0F0;}
	.st3{fill:#ECE34A;}
	.st4{fill:#F7AA00;}
	.st5{fill:#191919;}
	.st6{fill:#323232;}
	.st7{fill:#88DFAC;}
	.st8{fill:#F07810;}
	.st9{fill:#B336D1;}
	.st10{fill:#C50D66;}
	.st11{fill:none;stroke:#F0F0F0;stroke-width:30;stroke-miterlimit:10;}
	.st12{fill:none;stroke:#F0F0F0;stroke-width:30;stroke-miterlimit:10;stroke-dasharray:225.3727,112.6864;}
	.st13{fill:none;stroke:#F0F0F0;stroke-width:30;stroke-miterlimit:10;stroke-dasharray:222.0643,111.0321;}
	.st14{fill:none;stroke:#F0F0F0;stroke-width:30;stroke-miterlimit:10;stroke-dasharray:277.1792,138.5896;}
	.st15{fill:none;stroke:#F0F0F0;stroke-width:30;stroke-miterlimit:10;stroke-dasharray:342.4319,171.2159;}
	.st16{fill:none;stroke:#F0F0F0;stroke-width:30;stroke-miterlimit:10;stroke-dasharray:209.417,104.7085;}
	.st17{fill:none;stroke:#F0F0F0;stroke-width:30;stroke-miterlimit:10;stroke-dasharray:151.3286,70.62;}
	.st18{fill:none;stroke:#F0F0F0;stroke-width:30;stroke-miterlimit:10;stroke-dasharray:166.4701,77.6861;}
	.st19{fill:none;stroke:#F0F0F0;stroke-width:30;stroke-miterlimit:10;stroke-dasharray:115.9347,54.1028;}
	.st20{fill:none;stroke:#F0F0F0;stroke-width:30;stroke-miterlimit:10;stroke-dasharray:151.4793,70.6903;}
	.st21{fill:none;stroke:#F0F0F0;stroke-width:30;stroke-miterlimit:10;stroke-dasharray:155.4303,72.5341;}
	.st22{fill:none;stroke:#F0F0F0;stroke-width:30;stroke-miterlimit:10;stroke-dasharray:138.5701,64.6661;}
	.st23{fill:none;stroke:#F0F0F0;stroke-width:30;stroke-miterlimit:10;stroke-dasharray:162.7287,75.9401;}
	.st24{fill:none;stroke:#F0F0F0;stroke-width:30;stroke-miterlimit:10;stroke-dasharray:112.5254,112.5254;}
	.st25{fill:none;stroke:#F0F0F0;stroke-width:30;stroke-miterlimit:10;stroke-dasharray:90.5735,90.5735;}
	.st26{fill:none;stroke:#F0F0F0;stroke-width:30;stroke-miterlimit:10;stroke-dasharray:148.5324,148.5324;}
	.st27{fill:none;stroke:#F0F0F0;stroke-width:30;stroke-miterlimit:10;stroke-dasharray:158.8687,158.8687;}
	.st28{fill:none;stroke:#F0F0F0;stroke-width:30;stroke-miterlimit:10;stroke-dasharray:139.3,139.3;}
	.st29{fill:none;stroke:#F0F0F0;stroke-width:30;stroke-miterlimit:10;stroke-dasharray:163.9224,163.9224;}
	.st30{fill:none;stroke:#F0F0F0;stroke-width:30;stroke-miterlimit:10;stroke-dasharray:128.8277,128.8277;}
</style>
<rect id="Background" class="st0" width="1920" height="1080"/>
<g id="Kit">
	<g>
		<path d="M704,1045c-69.5,0-134.7-27-183.8-76.2S444,854.5,444,785s27-134.7,76.2-183.8S634.5,525,704,525s134.7,27,183.8,76.2
			S964,715.5,964,785s-27,134.7-76.2,183.8S773.5,1045,704,1045z"/>
		<path id="KickColor" class="st1" d="M704,1015c-61.4,0-119.2-23.9-162.6-67.4C497.9,904.2,474,846.4,474,785
			s23.9-119.2,67.4-162.6C584.8,578.9,642.6,555,704,555s119.2,23.9,162.6,67.4C910.1,665.8,934,723.6,934,785
			s-23.9,119.2-67.4,162.6C823.2,991.1,765.4,1015,704,1015z"/>
		<path class="st2" d="M704,985c-53.4,0-103.7-20.8-141.4-58.6c-37.8-37.8-58.6-88-58.6-141.4s20.8-103.7,58.6-141.4
			c37.8-37.8,88-58.6,141.4-58.6s103.7,20.8,141.4,58.6c37.8,37.8,58.6,88,58.6,141.4s-20.8,103.7-58.6,141.4
			C807.7,964.2,757.4,985,704,985z"/>
	</g>
	<g>
		<circle cx="754" cy="308" r="210"/>
		<circle id="Tom1Color" class="st3" cx="754" cy="308" r="180"/>
		<circle class="st2" cx="754" cy="308" r="150"/>
	</g>
	<g>
		<circle cx="1185" cy="308" r="210"/>
		<circle id="Tom2Color" class="st4" cx="1185" cy="308" r="180"/>
		<circle class="st2" cx="1185" cy="308" r="150"/>
	</g>
	<g>
		<circle class="st5" cx="356" cy="656" r="200"/>
		<path class="st6" d="M356,656v200c-109.7,0-200-90.3-200-200s90.3-200,200-200c71.4,0,137.5,38.2,173.2,100L356,656z"/>
		<path d="M356,656l-34.7,197C226.1,836.2,156,752.7,156,656c0-109.7,90.3-200,200-200c59.1,0,115.2,26.2,153.2,71.4L356,656z"/>
		<circle id="HighHatColor" class="st7" cx="356" cy="656" r="60"/>
		<circle cx="356" cy="656" r="35"/>
	</g>
	<g>
		<circle cx="1398" cy="685" r="210"/>
		<circle id="Tom3Color" class="st8" cx="1398" cy="685" r="180"/>
		<circle class="st2" cx="1398" cy="685" r="150"/>
	</g>
	<g>
		<circle class="st5" cx="1576" cy="336" r="250"/>
		<path class="st6" d="M1576,336l-246.2-43.4c21-119,125.4-206.6,246.2-206.6c137.2,0,250,112.9,250,250
			c0,120.8-87.6,225.2-206.6,246.2L1576,336z"/>
		<path d="M1576,336l-234.9-85.5C1376.9,152,1471.2,86,1576,86c137.2,0,250,112.9,250,250c0,104.9-66,199.1-164.5,234.9L1576,336z"
			/>
		<circle id="RideColor" class="st9" cx="1576" cy="336" r="60"/>
		<circle cx="1576" cy="336" r="35"/>
	</g>
	<g>
		<circle class="st5" cx="406" cy="285" r="250"/>
		<path class="st6" d="M406,285l-43.4,246.2C243.6,510.2,156,405.8,156,285c0-137.1,112.9-250,250-250
			c120.8,0,225.2,87.6,246.2,206.6L406,285z"/>
		<path d="M406,285l-85.5,234.9C222,484.1,156,389.9,156,285c0-137.1,112.9-250,250-250c104.9,0,199.1,66,234.9,164.5L406,285z"/>
		<circle id="CrashColor" class="st10" cx="406" cy="285" r="60"/>
		<circle cx="406" cy="285" r="35"/>
	</g>
</g>
<g id="Kick">
	<g id="KickRing">
		<g>
			<g>
				<path class="st11" d="M458,1074.7c-7.8-6.7-15.4-13.7-22.7-21c-23.5-23.5-43.7-49.7-60.2-78.3c-6.4,0.4-12.7,0.6-19.1,0.6
					c-37.5,0-74.2-6.5-108.7-19"/>
				<path class="st12" d="M150.2,901c-3.6-3-7.2-6.2-10.7-9.4c-58.8-54-95.1-127.5-102.2-206.9l-0.1-0.8c-0.2-2-0.3-3.9-0.5-5.8
					l-0.2-2.5c-0.1-1.7-0.2-3.3-0.3-5c0,0-0.1-4-0.2-4.5c0-0.8-0.1-1.7-0.1-2.5c-0.1-2.5-0.1-5-0.1-7.7c0-0.9,0-1.8,0-2.7"/>
				<path class="st11" d="M41.4,597.3c6.7-36,19.5-70.6,38-102.4c3.4-5.8,7-11.6,10.8-17.2c-22.7-37-38.6-77.7-47.1-120.4"/>
				<path class="st13" d="M37.9,246.8c8.6-84.4,45.6-162.7,106.4-223.5C214.3-46.5,307.2-85,406-85c2.4,0,4.9,0,7.3,0.1h1.9
					c0.7,0,3.2,0.1,3.2,0.1l3.7,0.1l1.9,0.1c1.1,0.1,2.2,0.1,3.3,0.2c1.1,0.1,4.1,0.3,4.1,0.3h0.1c2.5,0.2,4.9,0.4,7.4,0.6h0.3
					c11.4,1,22.7,2.6,34,4.7"/>
				<path class="st11" d="M526.9-64.7c25.4,8.8,49.8,20.3,72.6,34.3c14,8.6,27.5,18.2,40.3,28.7C676.2-15.2,714.5-22,754-22
					c4.5,0,8.9,0.1,13.4,0.3"/>
				<path class="st11" d="M857.1-5.5c30.8,10.1,60.1,24.9,87,44c8.8,6.2,17.2,12.8,25.3,19.8c8.1-7,16.5-13.6,25.3-19.8
					c27-19.1,56.3-33.8,87-44"/>
				<path class="st11" d="M1245.6-16.4c36.9,6.9,72.6,20.1,105.2,39.1c5,2.9,9.9,5.9,14.7,9.1c5.5-3.8,11.2-7.5,16.9-11
					c31.1-19.2,65.2-33.6,100.7-42.8"/>
				<path class="st14" d="M1620.5-31.4c82,9.8,157.9,46.5,217.2,105.7C1907.5,144.2,1946,237.2,1946,336c0,2.4,0,4.9-0.1,7.8v1.3
					c0,0.8-0.1,3.1-0.1,3.1l-0.1,3.9v1c0,0.9-0.1,1.7-0.1,2.6v0.7c0,0.8-0.2,2.8-0.2,3.3l-0.1,1.9c-0.2,2.4-0.3,4.7-0.5,7l-0.1,0.7
					c-3.8,42.4-14.7,83.4-32.5,121.9c-9.2,19.9-20.1,38.8-32.5,56.7"/>
				<path class="st11" d="M1834.7,600.6c-31,30.3-67.3,55-106.9,72.8c0.1,3.9,0.2,7.7,0.2,11.6c0,40.8-7.4,79.8-21,115.9"/>
				<path class="st15" d="M1608.7,938.8c-57.2,47.6-130.7,76.2-210.7,76.2c-69.6,0-134.2-21.6-187.4-58.5"/>
				<path class="st11" d="M1147.2,899.3c-28-32.7-49.6-70.8-63.2-112.7c-0.2,44.1-7.8,87.1-22.4,127.4"/>
				<path class="st16" d="M1013,1006.4c-12,16.7-25.5,32.5-40.3,47.3C900.9,1125.5,805.5,1165,704,1165
					c-73.3,0-143.5-20.6-203.9-59.2"/>
			</g>
		</g>
	</g>
	<g id="KickRing_1_">
		<g>
			<path class="st11" d="M442.2,985.9c-15.3-19.9-28.2-41.4-38.6-64.1c-15.6,2.8-31.5,4.2-47.6,4.2c-9.1,0-18.2-0.5-27.1-1.4"/>
			<path class="st17" d="M260.3,908.5c-31.9-12.1-61.4-30.2-87-53.7c-49.6-45.6-80.2-107.6-86.2-174.5l-0.1-0.6
				c-0.1-1.7-0.3-3.3-0.4-4.9l-0.1-2c-0.1-1.4-0.2-2.7-0.2-4.1c0-0.6-0.2-4.1-0.2-4.1c0-0.6,0-1.3-0.1-1.9c-0.1-2.1-0.1-4.2-0.1-6.5
				c0-27.6,4.2-54.9,12.4-81"/>
			<path class="st11" d="M111.2,542.1c3.5-7.5,7.3-14.8,11.5-21.9c8.5-14.6,18.2-28.2,29.2-40.8c-15.3-19.9-28.1-41.5-38.2-64.3"/>
			<path class="st18" d="M90.9,340.9c-1.6-8.8-2.8-17.7-3.6-26.7l-0.1-0.7c-0.2-2.2-0.4-4.3-0.5-6.4l-0.2-3.9c-0.1-1-0.1-2-0.2-3
				l-0.1-1.5c-0.1-1.3-0.1-2.5-0.1-3.7c0-0.3-0.1-3.2-0.1-3.2c0-2.3-0.1-4.5-0.1-6.8c0-85.5,33.3-165.8,93.7-226.3
				C240.2-1.7,320.5-35,406-35c2.2,0,4.3,0,6.5,0.1h1.3c0.6,0,2.7,0.1,2.7,0.1l3.3,0.1l1.7,0.1c0.9,0,1.8,0.1,2.8,0.2
				c1,0.1,3.9,0.3,3.9,0.3c2.1,0.1,4.2,0.3,6.3,0.5h0.3c35.2,3.1,69.8,12.2,102,26.6"/>
			<path class="st11" d="M571.2,10.9c0.7,0.4,1.4,0.9,2.1,1.3c20.4,12.5,39.6,27.6,56.9,44.6c22.5-11.1,46.3-19.1,70.9-23.9"/>
			<path class="st19" d="M754.9,28c48.4,0.2,95.1,12.6,136.7,36.2"/>
			<path class="st11" d="M914.5,78.7c0.3,0.2,0.6,0.4,0.8,0.6c20.4,14.4,38.5,31.2,54.2,50.1c15.6-18.8,33.8-35.7,54.2-50.1
				c0.3-0.2,0.6-0.4,0.8-0.6"/>
			<path class="st20" d="M1086.9,45.7C1118,34,1151.1,28,1185,28c29,0,57.8,4.5,85.2,13.3"/>
			<path class="st11" d="M1303.1,54.2c7.6,3.6,15.1,7.5,22.5,11.7c14.4,8.4,27.9,17.9,40.5,28.6c13.3-11.5,27.4-22,42.5-31.2
				c6.3-3.9,12.8-7.5,19.4-11"/>
			<path class="st21" d="M1495.4,26.3c17-4.4,34.3-7.5,51.8-9l1.1-0.1c1.8-0.2,3.7-0.3,5.6-0.4l3.9-0.2c1-0.1,2-0.1,3-0.2l1.3-0.1
				c1.3-0.1,2.6-0.1,3.9-0.1c0.4,0,3.2-0.1,3.2-0.1c2.3,0,4.5-0.1,6.8-0.1c85.5,0,165.8,33.3,226.3,93.7
				c60.4,60.4,93.7,140.8,93.7,226.3c0,2,0,4.2-0.1,6.8v1.1c0,0.7-0.1,2.6-0.1,2.6l-0.1,3.4l-0.1,1.1c0,0.7-0.1,1.4-0.1,2.1v0.8
				c0,0.7-0.1,2.2-0.2,2.6l-0.1,1.8c-0.1,2.1-0.3,4.1-0.5,6.1v0.5c-3.3,36.7-12.7,72.1-28.1,105.4c-14.9,32.3-35,61.7-59.6,87.4
				c-10.8,11.3-22.4,21.7-34.7,31.2"/>
			<path class="st11" d="M1742.5,609.3c-21.4,13-44.2,23.5-68,31.2c2.4,14.7,3.6,29.5,3.6,44.5c0,10.2-0.6,20.3-1.6,30.3"/>
			<path class="st22" d="M1662.1,778.2C1623.6,886.9,1519.7,965,1398,965c-153.1,0-277.9-123.5-280-276.1"/>
			<path class="st11" d="M1119.4,656.6c2.6-25,8.5-49.4,17.5-72.7c-24.7-4.3-48.6-11.9-71.3-22.6"/>
			<path class="st11" d="M1024.4,537.3c-0.3-0.2-0.5-0.4-0.8-0.5c-20.4-14.4-38.6-31.3-54.2-50.1c-14.9,17.9-32,34-50.8,47.7
				c6.4,5.5,12.7,11.3,18.7,17.3c11.8,11.8,22.6,24.3,32.3,37.4"/>
			<path class="st23" d="M1007.4,654.8c17.4,40.6,26.6,84.7,26.6,130.2c0,88.1-34.3,171-96.7,233.3C875,1080.7,792.1,1115,704,1115
				s-171-34.3-233.3-96.7c-1.2-1.2-2.4-2.5-3.7-3.7"/>
		</g>
	</g>
	<g id="KickRing_2_">
		<g>
			<g>
				<path class="st11" d="M1420.6,115.2c-20.4,14.4-38.8,31.7-54.6,51.1c-15.4-19.7-34-36.8-54.9-50.6"/>
				<path class="st24" d="M1205.9,79c-6.9-0.6-13.9-1-20.9-1c-51.7,0-99.4,17.1-137.8,46"/>
				<path class="st11" d="M1006.7,162.9c-15.7,19.3-28.3,41.1-37.2,64.7c-8.9-23.7-21.5-45.5-37.2-64.7"/>
				<path class="st25" d="M863,105.5C830.5,88,793.4,78,754,78c-7.5,0-14.9,0.4-22.3,1.1"/>
				<path class="st11" d="M687.4,87.9c-23.9,7.2-46.5,18.4-67,33c-15.2-19.8-33.2-37.6-53.2-52.5"/>
				<path class="st26" d="M430.1,16.1L430.1,16.1c-1.8-0.2-3.6-0.3-5.3-0.4c0,0-3-0.2-3.6-0.2c-0.8-0.1-1.6-0.1-2.4-0.1l-1.3-0.1
					c-1,0-2-0.1-3-0.1c0,0-1.5-0.1-2-0.1h-0.8c-1.9,0-3.8-0.1-5.7-0.1c-72.1,0-139.9,28.1-190.9,79.1S136,212.9,136,285
					c0,1.9,0,3.8,0.1,5.8v0.7c0,0.5,0.1,2,0.1,2c0,1,0.1,2,0.1,3.1l0.1,1.2c0,0.8,0.1,1.6,0.1,2.5c0,0.5,0.2,3.5,0.2,3.5
					c0.1,1.8,0.3,3.6,0.4,5.4v0.2c1.4,15.8,4.2,31.3,8.3,46.4"/>
				<path class="st11" d="M174.5,423.8c12.8,21.4,28.6,41,46.9,58.2c-19.8,15.3-36.9,34-50.5,55"/>
				<path class="st27" d="M138.5,689c7.4,49.4,31.5,94.8,68.7,129c22.3,20.5,48.2,35.9,76.1,45.7"/>
				<path class="st11" d="M361.3,875.9c25.1-0.6,49.9-5.5,73.2-14.4c6.8,24.2,16.9,47.2,29.8,68.6"/>
				<path class="st28" d="M562.7,1026.8c42.4,24.9,90.9,38.2,141.3,38.2c74.8,0,145.1-29.1,198-82s82-123.2,82-198
					c0-60.7-19.2-118.5-54.7-166.3"/>
				<path class="st11" d="M881.4,568.3c-19.5-16-40.9-29.2-63.6-39.3c24.4-7,47.1-18,67.4-32.2"/>
				<path class="st11" d="M932.3,453.1c15.7-19.3,28.3-41.1,37.2-64.8c8.9,23.7,21.5,45.5,37.2,64.7"/>
				<path class="st11" d="M1149.4,535.2c11.6,1.8,23.5,2.8,35.6,2.8c13.2,0,26.3-1.1,39-3.3c-16.5,19.1-29.7,40.6-39.1,63.6"/>
				<path class="st29" d="M1180.1,758.7C1210.9,849.5,1297,915,1398,915c101.5,0,187.9-66.1,218.3-157.6"/>
				<path class="st11" d="M1627.8,676.7c-0.9-25-5.9-49.8-14.8-73.2c25.2-3.5,49.4-10.4,71.9-20.4"/>
				<path class="st30" d="M1786.3,505.5c32.5-40.3,53.7-90.2,58.6-145.1v-0.3c0.2-1.8,0.3-3.5,0.4-5.3l0.1-1.6c0,0,0.1-1.5,0.1-2.1
					c0-0.8,0.1-1.6,0.1-2.4l0.1-1.3c0-1,0.1-2,0.1-3c0,0,0.1-1.5,0.1-2v-0.8c0-1.9,0.1-3.8,0.1-5.7c0-72.1-28.1-139.9-79.1-190.9
					S1648.1,66,1576,66c-1.9,0-3.8,0-5.8,0.1h-0.7c-0.5,0-2,0.1-2,0.1c-1,0-2,0.1-3,0.1l-1.3,0.1c-0.8,0-1.6,0.1-2.5,0.1
					c-0.5,0-3.5,0.2-3.5,0.2c-1.8,0.1-3.6,0.3-5.2,0.4h-0.3c-25.5,2.3-50.6,8.3-74.5,17.6"/>
			</g>
			<path class="st11" d="M549.5,551.4c-3.9-7.2-8.2-14.2-13-21l0.7-0.6l-5.1-6c23.8-12.6,45.7-28.8,64.7-47.8
				c14.8,13.9,31.3,25.6,49,35.1C611.6,518.1,579,531.7,549.5,551.4z"/>
		</g>
	</g>
</g>
<g id="Snare">
	<g id="SnareRing_2_">
		<path class="st1" d="M849,1036.2c44.1-25.5,80.7-62.1,106.2-106.2c25.4-44.1,38.8-94.1,38.8-145h-30c0,45.6-12,90.5-34.8,130
			s-55.6,72.3-95.2,95.2L849,1036.2z"/>
		<path class="st1" d="M749.2,1041.1c-14.9,2.6-30,3.9-45.2,3.9c-142.6,0-260-117.4-260-260c0-61.1,21.5-120.3,60.8-167.1l-23-19.3
			C438,650.8,414,716.8,414,785c0,159.1,130.9,290,290,290c16.9,0,33.7-1.5,50.4-4.4L749.2,1041.1z"/>
		<path class="st1" d="M704,525c109,0,207,68.6,244.3,171.1l28.2-10.3C934.9,571.5,825.6,495,704,495c-50.9,0-100.9,13.4-145,38.8
			l15,26C613.5,537,658.4,525,704,525z"/>
	</g>
	<g id="SnareRing_1_">
		<path class="st1" d="M922.5,524.5l-19.3,23C973.4,606.4,1014,693.4,1014,785c0,72.9-25.7,143.5-72.5,199.3l23,19.3
			c51.4-61.2,79.6-138.6,79.6-218.5C1044,684.6,999.5,589.1,922.5,524.5z"/>
		<path class="st1" d="M484.8,565.8c32-32,70.6-56.6,113.2-72.1l-10.3-28.2c-46.7,17-89,44-124.1,79.1s-62.1,77.5-79.1,124.1
			l28.2,10.3C428.2,636.4,452.8,597.8,484.8,565.8z"/>
		<path class="st1" d="M423,916c-19.1-41-29-85.7-29-131h-30c0,49.7,10.9,98.7,31.9,143.7s51.6,84.8,89.6,116.8l19.3-23
			C470.1,993.4,442.2,957,423,916z"/>
	</g>
	<g id="SnareRing">
		<path class="st1" d="M704,1175c-68.3,0-135.7-18.1-195-52.3c-59.3-34.2-108.6-83.6-142.8-142.7l26-15
			c64.1,111,183.6,180,311.8,180c198.5,0,360-161.5,360-360h30c0,52.3-10.4,103.2-30.9,151.3c-19.8,46.4-48,88.1-83.9,124
			s-77.6,64.1-124,83.9C807.2,1164.6,756.3,1175,704,1175z"/>
		<path class="st1" d="M979.8,553.6C911.2,471.9,810.7,425,704,425c-42.1,0-83.5,7.3-123.1,21.7l-10.3-28.2
			C613.5,402.9,658.4,395,704,395c56.5,0,113.5,12.6,164.8,36.6c51.3,23.9,97.6,59.4,133.9,102.8L979.8,553.6z"/>
		<path class="st1" d="M337.5,918.4C321.9,875.5,314,830.6,314,785c0-56.5,12.6-113.5,36.6-164.8s59.4-97.6,102.8-133.9l19.3,23
			C390.9,577.8,344,678.3,344,785c0,42.1,7.3,83.5,21.7,123.1L337.5,918.4z"/>
	</g>
</g>
<g id="Tom3">
	<g id="Tom3Ring_2_">
		<path class="st8" d="M1480.1,459.5l-10.3,28.2C1552.6,517.8,1608,596.9,1608,685s-55.4,167.2-138.2,197.3l10.3,28.2
			C1574.7,876.1,1638,785.7,1638,685S1574.7,493.9,1480.1,459.5z"/>
		<path class="st8" d="M1398,475v-30c-131.7,0-240,108.3-240,240c0,28,4.9,55.8,14.5,82.1l28.2-10.3c-8.4-23-12.7-47.3-12.7-71.8
			C1188,569.8,1282.8,475,1398,475z"/>
		<path class="st8" d="M1237.1,820l-23,19.3c22.5,26.8,50.7,48.4,82.4,63.2c31.8,14.8,66.4,22.5,101.4,22.5v-30
			c-30.7,0-61-6.7-88.8-19.7C1281.5,862.4,1256.8,843.5,1237.1,820z"/>
	</g>
	<g id="Tom3Ring_1_">
		<path class="st8" d="M1268,910.2c-19.7-11.4-37.8-25.3-53.8-41.3s-30-34.2-41.3-53.8l-26,15c12.7,22,28.2,42.1,46.1,60.1
			c17.9,17.9,38.1,33.4,60.1,46.1L1268,910.2z"/>
		<path class="st8" d="M1683.6,634.6l-29.5,5.2c2.6,14.9,3.9,30,3.9,45.2c0,142.6-117.4,260-260,260v30c159.1,0,290-130.9,290-290
			C1688,668.1,1686.5,651.3,1683.6,634.6z"/>
		<path class="st8" d="M1309.1,440.7l-10.3-28.2c-55.9,20.4-104.2,57.4-138.4,106.2c-34.1,48.8-52.4,106.8-52.4,166.3h30
			c0-53.3,16.4-105.4,47-149.1S1258.9,458.9,1309.1,440.7z"/>
		<path class="st8" d="M1581.8,501.1c16.1,16.1,30,34.2,41.3,53.9l26-15c-12.7-22-28.2-42.1-46.1-60.1
			c-17.9-17.9-38.1-33.4-60.1-46.1l-15,26C1547.7,471.2,1565.8,485.1,1581.8,501.1z"/>
	</g>
	<g id="Tom3Ring">
		<path class="st8" d="M1653,902.2l-22.8-19.5c23.1-27.2,41.2-57.9,53.6-91.3c12.5-33.4,18.9-68.5,19.2-104.2l30,0.2
			c-0.3,39.2-7.4,77.7-21.1,114.4C1698.3,838.7,1678.4,872.4,1653,902.2z"/>
		<path class="st8" d="M1398,1020c-78.8,0-155.5-28.2-216.1-79.4s-101.2-122.2-114.2-199.9l29.6-5C1122.1,883.1,1248.6,990,1398,990
			c16.9,0,34-1.4,50.7-4.2l5,29.6C1435.4,1018.4,1416.6,1020,1398,1020z"/>
		<path class="st8" d="M1093,682.7l-30-0.2c0.4-58.7,16.4-116.5,46.1-167.2c29.7-50.6,72.5-92.7,123.5-121.7l14.8,26.1
			c-46.5,26.4-85.4,64.7-112.5,110.8C1107.9,576.6,1093.4,629.3,1093,682.7z"/>
		<path class="st8" d="M1595.8,452.8c-55.1-47-125.4-72.8-197.8-72.8c-16.9,0-34,1.4-50.7,4.2l-5-29.6c18.4-3.1,37.1-4.7,55.7-4.7
			c79.5,0,156.7,28.4,217.2,80L1595.8,452.8z"/>
	</g>
</g>
<g id="Tom2">
	<g id="Tom2Ring_2_">
		<g>
			<path class="st4" d="M959.7,225.9l28.2,10.3C1018,153.4,1097.2,98,1185.3,98s167.2,55.4,197.3,138.2l28.2-10.3
				C1376.3,131.3,1285.9,68,1185.3,68C1084.6,68,994.2,131.3,959.7,225.9z"/>
		</g>
		<g>
			<path class="st4" d="M975.3,308h-30c0,131.7,108.3,240,240,240c28,0,55.8-4.9,82.1-14.5l-10.3-28.2c-23,8.4-47.3,12.7-71.8,12.7
				C1070.1,518,975.3,423.2,975.3,308z"/>
		</g>
		<g>
			<path class="st4" d="M1320.2,468.9l19.3,23c26.8-22.5,48.4-50.7,63.2-82.4c14.8-31.8,22.5-66.4,22.5-101.4h-30
				c0,30.7-6.7,61-19.7,88.8C1362.6,424.5,1343.7,449.2,1320.2,468.9z"/>
		</g>
	</g>
	<g id="Tom2Ring_1_">
		<g>
			<path class="st4" d="M1410.4,438c-11.4,19.7-25.3,37.8-41.3,53.9s-34.2,30-53.8,41.3l15,26c21.9-12.7,42.1-28.2,60.1-46.1
				c17.9-17.9,33.4-38.1,46.1-60.1L1410.4,438z"/>
		</g>
		<g>
			<path class="st4" d="M1134.9,22.4l5.2,29.5c14.9-2.6,30-4,45.2-4c142.6,0,260,117.4,260,260h30c0-159.1-130.9-290-290-290
				C1168.4,18,1151.5,19.5,1134.9,22.4z"/>
		</g>
		<g>
			<path class="st4" d="M940.9,396.9l-28.2,10.3c20.3,55.9,57.4,104.2,106.2,138.4c48.7,34.1,106.8,52.5,166.3,52.5v-30
				c-53.3,0-105.4-16.4-149.1-47C992.4,490.4,959.2,447.1,940.9,396.9z"/>
		</g>
		<g>
			<path class="st4" d="M1001.4,124.2c16.1-16.1,34.2-30,53.9-41.3l-15-26c-22,12.7-42.1,28.2-60.1,46.1s-33.4,38.1-46.1,60.1l26,15
				C971.5,158.3,985.3,140.2,1001.4,124.2z"/>
		</g>
	</g>
	<g id="Tom2Ring">
		<path class="st4" d="M1440,525.2l-22.8-19.5c23.1-27.2,41.2-57.9,53.6-91.3c12.5-33.4,18.9-68.5,19.2-104.2l30,0.2
			c-0.3,39.2-7.4,77.7-21.1,114.4C1485.3,461.7,1465.4,495.4,1440,525.2z"/>
		<path class="st4" d="M1185,643c-44.9,0-88.6-8.9-129.9-26.5c-39.8-17-75.7-41.2-106.5-72s-55.1-66.7-72-106.5
			c-17.6-41.3-26.5-85-26.5-129.9c0-20.3,1.9-40.7,5.5-60.6l29.5,5.4c-3.3,18.2-5,36.7-5,55.2c0,168.2,136.8,305,305,305
			c52.7,0,104.7-13.7,150.5-39.7l14.8,26.1C1300,627.9,1242.8,643,1185,643z"/>
		<path class="st4" d="M899.2,201.5L871.1,191C895,126.9,937.5,72.2,994,33s122.5-60,191-60c79.5,0,156.7,28.4,217.2,80l-19.5,22.8
			C1327.7,28.9,1257.4,3,1185,3C1058.3,3,943.4,82.8,899.2,201.5z"/>
	</g>
</g>
<g id="Tom1">
	<g id="Tom1Ring_2_">
		<g>
			<path class="st3" d="M971.7,206.4l-27.2,12.7c37.2,79.8,20.5,175-41.8,237.2s-157.4,79-237.2,41.8l-12.7,27.2
				c91.2,42.5,200,23.4,271.1-47.8C995.1,406.4,1014.2,297.6,971.7,206.4z"/>
		</g>
		<g>
			<path class="st3" d="M902.7,159.3l21.2-21.2c-93.1-93.1-246.3-93.1-339.4,0c-19.8,19.8-36,42.9-47.8,68.3l27.2,12.7
				c10.3-22.2,24.5-42.4,41.8-59.7C687.2,77.9,821.2,77.9,902.7,159.3z"/>
		</g>
		<g>
			<path class="st3" d="M545,289.5l-29.9-2.6c-3,34.9,1.6,70.1,13.6,103s31,62.8,55.8,87.6l21.2-21.2
				c-21.7-21.7-38.4-47.9-48.8-76.7C546.4,350.8,542.3,320.1,545,289.5z"/>
		</g>
	</g>
	<g id="Tom1Ring_1_">
		<g>
			<path class="st3" d="M503,375.1c-5.9-22-8.9-44.6-8.9-67.3s3-45.4,8.9-67.3l-29-7.8c-6.6,24.5-9.9,49.7-9.9,75.1
				c0,25.3,3.3,50.6,9.9,75.1L503,375.1z"/>
		</g>
		<g>
			<path class="st3" d="M991.7,474.1l-24.6-17.2c-8.7,12.4-18.4,24-29.1,34.7c-100.9,100.9-266.8,100.9-367.7,0l-21.2,21.2
				c112.5,112.5,297.6,112.5,410.1,0C971.2,500.9,982,488,991.7,474.1z"/>
		</g>
		<g>
			<path class="st3" d="M864.1,72.2L876.7,45c-53.9-25.1-114.3-33.1-172.9-22.8s-112.6,38.5-154.7,80.5l21.2,21.2
				C608.1,86.2,656.5,61,709,51.8S815.7,49.6,864.1,72.2z"/>
		</g>
		<g>
			<path class="st3" d="M1014.2,307.8c0,22.7-3,45.4-8.9,67.3l29,7.8c6.6-24.5,9.9-49.7,9.9-75.1c0-25.3-3.3-50.6-9.9-75.1l-29,7.8
				C1011.2,262.5,1014.2,285.1,1014.2,307.8z"/>
		</g>
	</g>
	<g id="Tom1Ring">
		<path class="st3" d="M969.3,564.6l-19.3-23c69.3-58.1,109-143.2,109-233.6C1059,139.8,922.2,3,754,3v-30
			c44.9,0,88.6,8.9,129.9,26.5c39.8,17,75.7,41.2,106.5,72s55.1,66.7,72,106.5c17.6,41.3,26.5,85,26.5,129.9
			C1089,407.3,1045.4,500.8,969.3,564.6z"/>
		<path class="st3" d="M754,643c-119.3,0-230.5-64.2-290.1-167.5l26-15C544.2,554.6,645.4,613,754,613c17.7,0,35.5-1.6,53-4.6
			l5.2,29.5C793,641.3,773.4,643,754,643z"/>
		<path class="st3" d="M453.6,255l-29.5-5.2c10.2-57.8,35.5-112.2,73.3-157.2s86.9-79.4,142-99.5l10.3,28.2
			c-50.2,18.3-95,49.6-129.3,90.6S462.9,202.4,453.6,255z"/>
	</g>
</g>
<g id="Ride">
	<g id="RideRing_2_">
		<path class="st9" d="M1666,336c0,49.4-40.6,90-90,90c-21.2,0-41.7-7.5-57.8-21.1l-19.3,23c21.6,18.1,48.9,28.1,77.1,28.1
			c65.8,0,120-54.2,120-120H1666L1666,336z"/>
		<path class="st9" d="M1486,336c0-26.6,11.8-51.9,32.2-68.9l-19.3-23c-27.2,22.8-42.9,56.5-42.9,91.9c0,21.1,5.6,41.8,16.1,60
			l26-15C1490.2,367.3,1486,351.8,1486,336z"/>
		<path class="st9" d="M1576,246c37.8,0,71.7,23.8,84.6,59.2l28.2-10.3c-17.2-47.3-62.4-79-112.8-79c-14,0-27.9,2.4-41,7.2
			l10.3,28.2C1555.1,247.8,1565.5,246,1576,246z"/>
	</g>
	<g id="RideRing_1_">
		<path class="st9" d="M1702.9,276.8c5.2,11.1,8.9,22.8,11,34.9l29.5-5.2c-2.6-14.6-7.1-28.9-13.3-42.3
			c-6.3-13.5-14.3-26.1-23.8-37.4l-23,19.3C1691.1,255.4,1697.7,265.7,1702.9,276.8z"/>
		<path class="st9" d="M1697.2,406c-25,43.3-71.3,70-121.2,70c-76.8,0-140-63.2-140-140h-30c0,93.3,76.7,170,170,170
			c60.7,0,116.9-32.5,147.2-85L1697.2,406z"/>
		<path class="st9" d="M1506,214.8c21.3-12.3,45.4-18.8,70-18.8v-30c-29.8,0-59.2,7.9-85,22.8s-47.3,36.4-62.2,62.2l26,15
			C1467,244.7,1484.7,227,1506,214.8z"/>
	</g>
	<g id="RideRing">
		<path class="st9" d="M1576,551c-50.5,0-99.5-17.9-138.2-50.3l19.3-23c33.3,27.9,75.5,43.3,118.9,43.3c21.6,0,42.9-3.8,63.3-11.2
			l10.3,28.2C1625.9,546.6,1601.2,551,1576,551z"/>
		<path class="st9" d="M1391,336h-30c0-57.1,22.5-111,63.3-151.8S1518.9,121,1576,121c37.7,0,74.9,10,107.5,28.8l-15,26
			c-28.1-16.2-60.1-24.8-92.5-24.8C1474,151,1391,234,1391,336z"/>
		<path class="st9" d="M1714.2,500.7l-19.3-23c42-35.2,66.1-86.9,66.1-141.7c0-32.4-8.6-64.4-24.8-92.5l26-15
			c18.8,32.6,28.8,69.8,28.8,107.5C1791,399.7,1763,459.7,1714.2,500.7z"/>
	</g>
</g>
<g id="Crash">
	<g id="CrashRing_2_">
		<g>
			<path class="st10" d="M342.2,348.5c-34.9-34.9-34.9-92.4,0-127.3c15-15,34.7-24.2,55.8-26l-2.6-29.9
				c-28.1,2.5-54.5,14.8-74.4,34.7c-46.5,46.6-46.5,123.2,0,169.7L342.2,348.5z"/>
		</g>
		<g>
			<path class="st10" d="M469.4,221.3c18.8,18.8,28.3,45,26,71.5l29.9,2.6c3.1-35.3-9.6-70.2-34.7-95.3
				c-14.9-14.9-33.5-25.6-53.8-31.1l-7.8,29C444.4,202.1,458.3,210.1,469.4,221.3z"/>
		</g>
		<g>
			<path class="st10" d="M469.4,348.5c-26.7,26.7-67.5,33.9-101.7,17.9L355,393.6c45.6,21.3,100,11.7,135.6-23.9
				c9.9-9.9,18-21.5,23.9-34.1L487.4,323C482.9,332.5,476.9,341.1,469.4,348.5z"/>
		</g>
	</g>
	<g id="CrashRing_1_">
		<g>
			<path class="st10" d="M357.9,416.5c-11.5-4.2-22.4-9.9-32.4-16.9l-17.2,24.6c12.2,8.5,25.4,15.4,39.4,20.5s28.5,8.3,43.3,9.6
				l2.6-29.9C381.4,423.3,369.4,420.6,357.9,416.5z"/>
		</g>
		<g>
			<path class="st10" d="M270.6,321.1c-12.9-48.3,0.9-99.9,36.2-135.2c54.3-54.3,143.7-54.3,198,0l21.2-21.2
				c-65.9-65.9-174.5-65.9-240.4,0c-42.9,42.9-59.7,105.6-44,164.2L270.6,321.1z"/>
		</g>
		<g>
			<path class="st10" d="M541,321.1c-6.4,23.7-18.9,45.4-36.2,62.8l21.2,21.2c21.1-21.1,36.3-47.4,44-76.2s7.7-59.2,0-88l-29,7.8
				C547.4,272.4,547.4,297.4,541,321.1z"/>
		</g>
	</g>
	<g id="CrashRing">
		<path class="st10" d="M406,505c-78.3,0-151.4-42.1-190.5-110l26-15c33.8,58.6,96.9,95,164.5,95c104.8,0,190-85.2,190-190h30
			c0,58.4-23,113.5-64.7,155.3C519.5,482,464.4,505,406,505z"/>
		<path class="st10" d="M216,285h-30c0-58.4,23-113.5,64.7-155.3C292.5,88,347.6,65,406,65c92.1,0,175.2,58.2,206.7,144.8L584.5,220
			c-27.2-74.8-99-125-178.5-125C301.2,95,216,180.2,216,285z"/>
	</g>
</g>
<g id="HighHat">
	<g id="HighHatRing_2_">
		<path class="st7" d="M570.2,692.8l-29.5-5.2c1.9-10.7,2.8-21.7,2.8-32.6c0-103.4-84.1-187.5-187.5-187.5
			c-66.8,0-129,35.9-162.4,93.8l-26-15c38.7-67.1,110.9-108.8,188.4-108.8c57.7,0,112.3,22.7,153.5,64c41.3,41.3,64,95.8,64,153.5
			C573.5,667.6,572.4,680.3,570.2,692.8z"/>
		<path class="st7" d="M355,876.5v-30c32.9,0,65.3-8.7,93.8-25.1c28.5-16.4,52.2-40.2,68.6-68.6l26,15c-19.1,33-46.6,60.5-79.6,79.6
			C430.7,866.4,393.1,876.5,355,876.5z"/>
		<path class="st7" d="M245.3,847.4C178.2,808.6,136.5,736.5,136.5,659c0-12.6,1.1-25.3,3.3-37.8l29.5,5.2
			c-1.9,10.7-2.8,21.7-2.8,32.6c0,66.8,35.9,129,93.8,162.4L245.3,847.4z"/>
	</g>
	<g id="HighHatRing_1_">
		<g>
			<path class="st7" d="M292.2,592.5c34.9-34.9,92.4-34.9,127.3,0c15,15,24.2,34.7,26,55.8l29.9-2.6c-2.5-28.1-14.8-54.5-34.7-74.4
				c-46.5-46.5-123.2-46.5-169.7,0L292.2,592.5z"/>
		</g>
		<g>
			<path class="st7" d="M419.4,719.7c-18.8,18.8-45,28.3-71.5,26l-2.6,29.9c35.3,3.1,70.2-9.6,95.3-34.7
				c14.9-14.9,25.6-33.5,31.1-53.8l-29-7.8C438.6,694.6,430.6,708.6,419.4,719.7z"/>
		</g>
		<g>
			<path class="st7" d="M292.2,719.7c-26.7-26.7-33.9-67.5-17.9-101.7L247,605.4c-21.3,45.6-11.7,100,23.9,135.6
				c9.9,9.9,21.5,18,34.1,23.9l12.7-27.2C308.2,733.2,299.6,727.2,292.2,719.7z"/>
		</g>
	</g>
	<g id="HighHatRing">
		<g>
			<path class="st7" d="M224.2,608.2c4.2-11.5,9.9-22.4,16.9-32.4l-24.6-17.2C208,570.8,201.1,584,196,598s-8.3,28.5-9.6,43.3
				l29.9,2.6C217.4,631.7,220.1,619.7,224.2,608.2z"/>
		</g>
		<g>
			<path class="st7" d="M319.6,520.9c48.3-12.9,99.9,0.9,135.2,36.2c54.3,54.3,54.3,143.7,0,198l21.2,21.2
				c65.9-65.9,65.9-174.5,0-240.4c-42.9-42.9-105.6-59.7-164.2-44L319.6,520.9z"/>
		</g>
		<g>
			<path class="st7" d="M319.6,791.3c-23.7-6.4-45.4-18.9-62.8-36.2l-21.2,21.2c21.1,21.1,47.4,36.3,76.2,44s59.2,7.7,88,0l-7.8-29
				C368.3,797.7,343.3,797.7,319.6,791.3z"/>
		</g>
	</g>
</g>
</svg>
